<svg xmlns="http://www.w3.org/2000/svg" width="129.383" height="61.325" viewBox="0 0 129.383 61.325">
  <g id="Сгруппировать_138" data-name="Сгруппировать 138" transform="translate(-71.617 -2452.437)">
    <g id="Сгруппировать_137" data-name="Сгруппировать 137">
      <g id="Сгруппировать_135" data-name="Сгруппировать 135">
        <g id="Сгруппировать_134" data-name="Сгруппировать 134">
          <path id="Контур_311" data-name="Контур 311" d="M172.042,2452.772c1.9-.271,2,2.368.972,2.96a1.652,1.652,0,0,1-2.383-1.142A1.482,1.482,0,0,1,172.042,2452.772Z" fill-rule="evenodd"/>
          <path id="Контур_312" data-name="Контур 312" d="M161.449,2463.876c-.462-.189-.209-1.035-.529-1.352-2.335-1.226-3.749,1.064-4.857,2.261.965-.169,2.048-.967,3.531-.873,1.507.719.668,3.816.293,5.266.485,1.237,2.1-.021,2.8-.4a10.929,10.929,0,0,0,4.414-4.48c.792-1.527,1.062-3.525,1.945-4.842.383-.572,1.723-2.15,2.824-1.45s-.6,2.993-1,3.835c-.238.5-.719,1.593-.852,1.975-.3.868-.655,2.935.172,3.251.641.243,2.635-.914,3.091-1.168a31.407,31.407,0,0,0,4.151-3.1c-.3-3.172,1.041-6.113,3.356-6.75,1.842-.5,2.976,1.1,2.119,2.872-.6,1.243-2.592,2.412-3.354,3.249.457,2.22,2.785,3.168,2.469,5.873-.238,2.017-2.331,3.122-3.8,4.265a34.878,34.878,0,0,0-6.358,5.822,7.1,7.1,0,0,0-1.591,3.818c.036.755.52.8.443,1.52-1.766.758-2.138-1.335-1.764-2.756,1-3.8,5.8-6.623,8.531-9.454.923-.959,2.446-2.662,2.417-3.812-.035-1.515-1.954-2.084-2.206-3.666a69.24,69.24,0,0,1-6.343,4.656c-.724.456-2.361,1.269-3.191.842-.9-.465-1.167-2.048-1.047-3.479a21.318,21.318,0,0,1-4.161,4.312c-.931.683-4.5,2.707-5.564.807-1-1.786,1.24-3.12.355-4.7a7.956,7.956,0,0,0-4.768,2.618c-.432.51-.6,1.526-1.59,1.367-1.257-.6.224-2.429.708-3.447.242-.509.546-1.035.795-1.514.23-.444.727-.944.443-1.454-.623-.019-1.057.631-1.414,1.031-1.97,2.2-3.933,4.746-6.005,6.986a16.063,16.063,0,0,1-2.649,2.514c-1.49.962-3.442.615-3.265-1.908.129-1.861,1.305-3.546,2.208-5.083s2.122-3.323.885-5.36c-1.306,2.173-3.176,5.889-5.123,8.1-.73.828-2.362,2.482-4.24,1.606-1.014-.474-1.273-2.2-1.153-3.674a11.249,11.249,0,0,1-3.258,3.694,2.412,2.412,0,0,1-3.707-2.467,21.494,21.494,0,0,1-2.075,1.893,38.23,38.23,0,0,1-6.315,4.3c1.99,2.147,4.282,4.179,3.971,8.435-.305,4.16-2.848,8.048-4.859,11.011a49.418,49.418,0,0,1-7.063,8.57,53.823,53.823,0,0,1-8.831,6.686c-3.013,1.8-7.221,3.94-11.565,3.594-4.034-.322-4.966-2.937-4.675-7.176.279-4.1,2.452-7.5,4.415-10.258,6-8.424,14.961-14.713,23.487-19.759a87.73,87.73,0,0,1-9.091-6.459c-2.632-2.271-6.336-5.772-6-10.512a6.325,6.325,0,0,1,1.944-4.142c2.379-2.2,7.436-3.445,12.536-2.821a57.924,57.924,0,0,1,10.768,2.3c2.166.716,4.635,1.32,3.8,3.871-2.024-.286-3.974-1.269-6.18-1.864-2.1-.567-4.324-1.04-6.8-1.474-4.631-.813-10.628-1.53-13.508.387-1.348.9-1.7,2.768-.883,4.745,1.326,3.222,4.416,5.758,7.414,7.908,3.136,2.249,6.647,4.1,9.531,5.966a70.548,70.548,0,0,0,8.125-4.64c1.785-1.315,2.122-3.13,3.708-5.584a14.98,14.98,0,0,1,2.122-2.816,5.436,5.436,0,0,1,2.647-1.376c2.271-.228,3.667,1.452,2.823,3.274.311.386,1.093.341,1.237.881.382,1.165-.7,1.9-1.06,2.9-.33.9-.723,3.122-.091,3.318,2.05.006,3.092-2.217,4.064-3.719.434-.674.942-1.463,1.5-2.513.379-.715,1.354-1.984,1.325-2.613-.044-.825-1.372-1.345-1.5-2.125-.329-1.972,2.2-3.8,4.151-3.189,1.127.567.165,1.665.439,2.571.2.666,1.349.717,1.678,1.264.953,1.581-.482,3-1.15,4.2-.493.889-.911,1.764-1.325,2.613-.9,1.856-2.031,3.556-2.032,5.709.178.757,2.385-1.358,3.269-2.292,2.721-2.874,5.271-6.168,8.212-8.92.57-.533,1.724-1.565,2.208-1.148.473,1.014-.105,2.232-.267,3.13.017.076-.033.08-.087.082.815-.387,1.981-1.767,3.354-2.811.836-.636,3.075-2.388,4.238-1.782C164.907,2459.729,163.069,2464.46,161.449,2463.876Zm18.1-2.752c1.05-1.038,2.294-1.87,2.736-3.559C180.547,2457.813,179.651,2459.427,179.548,2461.124Zm-48.065-.078c-2.258,1.79-4.673,7.157-2.7,8.864,1.361.63,2.182-1.091,2.737-2.157s.768-2.295,1.148-3.063c-1.043-.827.549-3.513-.351-3.877A1.429,1.429,0,0,0,131.483,2461.046ZM95.5,2491.384c-3.713,3.775-7.879,7.9-10.069,13.509-.695,1.785-1.4,5.073.088,6.48s4.566.587,6.357-.134a30.976,30.976,0,0,0,4.857-2.612,59.66,59.66,0,0,0,8.474-6.537,65.666,65.666,0,0,0,7.507-7.487c2.022-2.51,4.915-6.112,4.593-10.68a7.732,7.732,0,0,0-3.972-6.249c0-.053-.012-.1-.087-.093C107.078,2481.74,100.969,2485.826,95.5,2491.384Z" fill-rule="evenodd"/>
          <path id="Контур_313" data-name="Контур 313" d="M92.84,2471.5c1.883.108,1.241,2.282.536,3.074.088,1.1-.7,3.554.489,3.569,1.817.083,1.234-3.109,3.056-3.933.942.113.054,2.066-.462,2.986-.488.866-2.184,2.4-3.844,1.938-1.067-.518-1.284-2.26-1.349-3.433a7.425,7.425,0,0,1-2.457,3.8,2.08,2.08,0,0,1-3.374-1.03c-.539-2.2,1.054-6.032,2.629-7.942.83-1,2.779-2.167,4.194-1.265C93.053,2469.766,92.982,2470.609,92.84,2471.5Zm-2.865-1.813a9.211,9.211,0,0,0-1.011,1.224c-.8,1.4-1.734,3.9-1.536,5.482.075.6.192,1.806,1.021,1.723,1.215-.372,1.55-1.452,1.886-2.283.373-.923.352-1.966.666-2.885-1.089-.808-.171-2.441-.772-3.309Z" fill-rule="evenodd"/>
          <path id="Контур_314" data-name="Контур 314" d="M80.541,2474.163c.592-2.674,3.149-7.141,3.982-9.466.774-2.156,1.1-4.4.363-5.323-.211-.421-.667-.446-1.245-.43-.623.016-1,.689-1.336,1.16-1.151,1.614-3.4,10.112-4.543,12.121-3.549,6.253-4.444,2.879-5.644,6.2-.244.677-.76,1.47-.344,1.677a14.691,14.691,0,0,0,6.254-7.064c-.644,1.976-1.874,8.012-.106,11.929,2.634,3.821,7.76-5.251,7.89-7.256-1.362-.836-.257,1.551-4.465,5.48-.78.462-1.365.014-1.482-1.245A19.317,19.317,0,0,1,80.541,2474.163Zm1.512-8.18c.33-1.648.657-3.271,1.532-3.015,1.122.328-1.73,4.835-1.7,4.8l-.011-.411C81.9,2467.344,81.932,2466.576,82.053,2465.983Z" fill-rule="evenodd"/>
        </g>
      </g>
      <g id="Сгруппировать_136" data-name="Сгруппировать 136">
        <path id="Контур_315" data-name="Контур 315" d="M128.585,2496.851h-2.192l-3.177-8.213h1.995l2.278,6.317,2.266-6.317h1.994Z"/>
        <path id="Контур_316" data-name="Контур 316" d="M139.187,2496.851h-1.749v-8.213h1.749Z"/>
        <path id="Контур_317" data-name="Контур 317" d="M150.958,2496.851h-5.221v-8.213h1.749v6.674h3.472Z"/>
        <path id="Контур_318" data-name="Контур 318" d="M162.323,2496.851H157.1v-8.213h1.748v6.674h3.472Z"/>
        <path id="Контур_319" data-name="Контур 319" d="M176.127,2496.851h-1.994l-.506-1.391H170.1l-.516,1.391h-2l3.177-8.213h2.192Zm-2.979-2.93-1.282-3.535-1.28,3.535Z"/>
        <path id="Контур_320" data-name="Контур 320" d="M185.374,2497.011a4.374,4.374,0,0,1-3.109-1.182,4.386,4.386,0,0,1,0-6.157,4.407,4.407,0,0,1,3.109-1.169,3.768,3.768,0,0,1,3.4,1.835l-1.453.787a2.346,2.346,0,0,0-.807-.769,2.2,2.2,0,0,0-1.139-.3,2.435,2.435,0,0,0-1.846.764,2.93,2.93,0,0,0,0,3.866,2.435,2.435,0,0,0,1.846.764,2.75,2.75,0,0,0,1-.185,2.251,2.251,0,0,0,.752-.443v-.986h-2.167v-1.527h3.915v3.153A4.5,4.5,0,0,1,185.374,2497.011Z"/>
        <path id="Контур_321" data-name="Контур 321" d="M201,2496.851h-5.812v-8.213H201v1.539h-4.063v1.736h3.978v1.54h-3.978v1.859H201Z"/>
      </g>
    </g>
  </g>
</svg>
