<svg xmlns="http://www.w3.org/2000/svg" width="68.201" height="95" viewBox="0 0 68.201 95">
  <g id="Сгруппировать_151" data-name="Сгруппировать 151" transform="translate(-72.696 -3167)">
    <g id="Сгруппировать_150" data-name="Сгруппировать 150">
      <g id="Сгруппировать_149" data-name="Сгруппировать 149">
        <g id="Сгруппировать_145" data-name="Сгруппировать 145">
          <path id="Контур_324" data-name="Контур 324" d="M72.845,3233.784H88.672l.149,1.941a15.485,15.485,0,0,0-5.674-1.314H81.714v11.317c0,2.3,0,6.39.209,8.66h-2.33c.21-2.27.21-6.361.21-8.66v-11.317H78.369a15.2,15.2,0,0,0-5.673,1.314Z" fill="#071f35"/>
          <path id="Контур_325" data-name="Контур 325" d="M90.844,3233.246c.985,0,1.433.448,1.433,1.224s-.448,1.2-1.433,1.2c-1.015,0-1.493-.419-1.493-1.2C89.351,3233.724,89.829,3233.246,90.844,3233.246Zm1.015,14.483c0,2.209,0,4.539.209,6.659H89.829c.208-2.12.208-4.45.208-6.659v-1.613c0-2.21,0-4.449-.208-6.569l2.239-.09c-.209,2.12-.209,4.449-.209,6.659Z" fill="#071f35"/>
          <path id="Контур_326" data-name="Контур 326" d="M96.3,3254.388c.209-2.12.209-4.45.209-6.659v-1.613c0-2.21,0-4.449-.209-6.6l2.03-.06v1.881a9.634,9.634,0,0,1,5.584-2.239c2.15,0,3.733.865,4.42,2.508,2-1.493,3.912-2.508,5.972-2.508,2.986,0,4.837,1.612,4.837,4.688v3.942c0,2.508,0,4.18.209,6.659h-2.239c.209-2.479.239-4.151.239-6.659v-3.972c-.03-2.508-1.4-3.733-3.763-3.733a8.254,8.254,0,0,0-5.076,2.061,6.015,6.015,0,0,1,.239,1.7v3.942c0,2.508,0,4.18.209,6.659h-2.24c.209-2.479.209-4.151.209-6.659v-3.972c0-2.508-1.373-3.733-3.732-3.733a8.13,8.13,0,0,0-4.868,1.911v5.794c0,2.209,0,4.539.209,6.659Z" fill="#071f35"/>
          <path id="Контур_327" data-name="Контур 327" d="M124.512,3233.246c.985,0,1.433.448,1.433,1.224s-.448,1.2-1.433,1.2c-1.015,0-1.493-.419-1.493-1.2C123.019,3233.724,123.5,3233.246,124.512,3233.246Zm1.015,14.483c0,2.209,0,4.539.209,6.659H123.5c.208-2.12.208-4.45.208-6.659v-1.613c0-2.21,0-4.449-.208-6.569l2.239-.09c-.209,2.12-.209,4.449-.209,6.659Z" fill="#071f35"/>
          <path id="Контур_328" data-name="Контур 328" d="M129.013,3253.79l.209-1.522c1.254.627,3.045,1.911,5.554,1.911,2.986,0,4.479-1.165,4.479-3.2,0-5.316-10.033-1.314-10.033-7.526,0-2.837,1.911-4.329,5.554-4.359a13.376,13.376,0,0,1,5.166,1.015l-.179,1.463a9.634,9.634,0,0,0-4.928-1.911c-2.6,0-4,1.165-4,3.165,0,5.2,10.063,1.224,10.063,7.525,0,2.926-2.06,4.39-6.121,4.39A17.019,17.019,0,0,1,129.013,3253.79Z" fill="#071f35"/>
        </g>
        <g id="Сгруппировать_148" data-name="Сгруппировать 148">
          <g id="Сгруппировать_146" data-name="Сгруппировать 146">
            <path id="Контур_329" data-name="Контур 329" d="M82.017,3261.941h-.34l-.8-1.407H79.8v1.407h-.305v-3.492h1.469a.906.906,0,0,1,.685.3,1.045,1.045,0,0,1,.284.744,1.064,1.064,0,0,1-.206.642.932.932,0,0,1-.545.366Zm-2.22-3.222v1.555H80.86a.738.738,0,0,0,.546-.224.753.753,0,0,0,.223-.555.773.773,0,0,0-.214-.55.69.69,0,0,0-.52-.226Z" fill="#071f35"/>
            <path id="Контур_330" data-name="Контур 330" d="M85.963,3261.654h1.926v.287H85.65v-3.492h2.189v.286H85.963v1.3h1.829v.273H85.963Z" fill="#071f35"/>
            <path id="Контур_331" data-name="Контур 331" d="M92.629,3262a1.582,1.582,0,0,1-.4-.05,1.4,1.4,0,0,1-.374-.159.857.857,0,0,1-.3-.31,1.108,1.108,0,0,1-.142-.469h.309a.722.722,0,0,0,.2.428.812.812,0,0,0,.342.22,1.244,1.244,0,0,0,.36.052,1.043,1.043,0,0,0,.58-.154.539.539,0,0,0,.237-.487.585.585,0,0,0-.053-.257.648.648,0,0,0-.126-.186.743.743,0,0,0-.213-.139c-.093-.043-.172-.076-.238-.1s-.159-.051-.279-.085a4.078,4.078,0,0,1-.4-.144,1.716,1.716,0,0,1-.32-.182.7.7,0,0,1-.234-.276.9.9,0,0,1-.077-.383.833.833,0,0,1,.3-.686,1.2,1.2,0,0,1,.782-.243,1.452,1.452,0,0,1,.49.079.943.943,0,0,1,.409.3,1.081,1.081,0,0,1,.225.575h-.3a.724.724,0,0,0-.3-.52.974.974,0,0,0-1.068,0,.536.536,0,0,0-.232.469.592.592,0,0,0,.065.287.549.549,0,0,0,.2.2,1.268,1.268,0,0,0,.254.128c.08.03.184.064.313.1s.2.065.24.076.113.038.217.075a1.172,1.172,0,0,1,.22.1c.042.028.1.07.169.126a.533.533,0,0,1,.15.169,1.365,1.365,0,0,1,.083.21.907.907,0,0,1,.039.272.839.839,0,0,1-.31.714A1.305,1.305,0,0,1,92.629,3262Z" fill="#071f35"/>
            <path id="Контур_332" data-name="Контур 332" d="M97.383,3261.941v-3.492H97.7v3.492Z" fill="#071f35"/>
            <path id="Контур_333" data-name="Контур 333" d="M101.552,3261.941v-3.492h1.358a1.554,1.554,0,0,1,1.169.513,1.808,1.808,0,0,1,0,2.467,1.556,1.556,0,0,1-1.169.512Zm.314-.308h1.044a1.242,1.242,0,0,0,.948-.422,1.517,1.517,0,0,0,0-2.033,1.248,1.248,0,0,0-.948-.421h-1.044Z" fill="#071f35"/>
            <path id="Контур_334" data-name="Контур 334" d="M108.512,3261.654h1.925v.287H108.2v-3.492h2.189v.286h-1.875v1.3h1.828v.273h-1.828Z" fill="#071f35"/>
            <path id="Контур_335" data-name="Контур 335" d="M116.663,3258.449h.274v3.5h-.163l-2.348-2.939v2.934h-.278v-3.5h.162l2.353,2.94Z" fill="#071f35"/>
            <path id="Контур_336" data-name="Контур 336" d="M123.874,3260.783a1.755,1.755,0,0,1-.61.877,1.626,1.626,0,0,1-2.195-.189,1.885,1.885,0,0,1,0-2.551,1.628,1.628,0,0,1,2.195-.19,1.766,1.766,0,0,1,.615.875h-.334a1.442,1.442,0,0,0-.5-.657,1.282,1.282,0,0,0-.768-.249,1.3,1.3,0,0,0-.983.437,1.577,1.577,0,0,0,0,2.118,1.314,1.314,0,0,0,1.752.187,1.423,1.423,0,0,0,.508-.658Z" fill="#071f35"/>
            <path id="Контур_337" data-name="Контур 337" d="M127.837,3261.654h1.925v.287h-2.239v-3.492h2.189v.286h-1.875v1.3h1.828v.273h-1.828Z" fill="#071f35"/>
          </g>
          <g id="Сгруппировать_147" data-name="Сгруппировать 147">
            <path id="Контур_338" data-name="Контур 338" d="M134.718,3259.71l.736.224c.689.21,1.251.382,1.957.537l-.187.614c-.673-.266-1.235-.437-1.924-.647l-.736-.224c-.689-.211-1.251-.382-1.957-.537l.187-.614C133.467,3259.328,134.029,3259.5,134.718,3259.71Z" fill="#071f35"/>
          </g>
        </g>
      </g>
      <path id="Контур_339" data-name="Контур 339" d="M111.213,3167v13.933l-19.032-4.387v12.146l-14.735-2.913v40.32h61.063v-51.713Zm1.2,1.572,24.889,6.735v11.641l-24.889-5.737Zm-19.032,9.487,17.828,4.109v10.287l-17.828-3.525ZM78.65,3224.9v-37.651l13.531,2.675V3224.9Zm14.735,0v-34.738l17.828,3.525V3224.9Zm19.032,0v-42.449l24.889,5.737V3224.9Z" fill="#fa4c19"/>
    </g>
  </g>
</svg>
