<svg xmlns="http://www.w3.org/2000/svg" width="106.974" height="157.584" viewBox="0 0 106.974 157.584">
  <g id="Сгруппировать_123" data-name="Сгруппировать 123" transform="translate(-508.68 -4827.132)" opacity="0.13">
    <path id="Контур_295" data-name="Контур 295" d="M611.314,4859.376a31.32,31.32,0,0,1-3.708,15.336,1.172,1.172,0,0,0,.247,1.617,26.59,26.59,0,0,1,7.689,21.4c-.859,10-5.936,17.419-14.7,22.262a2.972,2.972,0,0,0-1.82,3c.052,16.247.019,32.495.052,48.742a5.9,5.9,0,0,1-1.753,4.351c-2.139,2.224-4.213,4.51-6.3,6.789-2.189,2.4-4.862,2.475-7.09.124-2.329-2.458-4.615-4.956-6.909-7.446a4.464,4.464,0,0,1-1.245-3.272c.036-1.2.042-2.4-.005-3.6a2.142,2.142,0,0,1,.736-1.743c1.168-1.12,2.27-2.311,3.467-3.4.616-.559.545-.89-.02-1.414-1.163-1.08-2.268-2.224-3.389-3.35a1.783,1.783,0,0,1-.044-2.76q1.75-1.809,3.571-3.55c.454-.434.46-.723,0-1.154-1.138-1.064-2.21-2.2-3.353-3.257a1.894,1.894,0,0,1-.122-3.085q1.705-1.725,3.488-3.374c.466-.43.468-.691,0-1.13-1.161-1.083-2.238-2.257-3.4-3.334a2.717,2.717,0,0,1-.931-2.207c.04-4.166-.006-8.333.034-12.5a2.27,2.27,0,0,0-1.27-2.155,3.039,3.039,0,0,0-3.072-.245,27.936,27.936,0,0,1-13.071,1.656,1.822,1.822,0,0,0-1.812,1.047q-5.008,7.629-10.033,15.249c-5.682,8.639-11.387,17.263-17.023,25.932a6.479,6.479,0,0,1-4.232,3.024c-2.951.666-5.863,1.5-8.795,2.251-3.354.856-5.461-.448-6.081-3.827-.6-3.24-1.121-6.494-1.662-9.744a4.737,4.737,0,0,1,.726-3.524c.615-.922,1.271-1.822,1.824-2.781a2.7,2.7,0,0,1,2.007-1.338c1.5-.283,2.989-.64,4.492-.911.73-.132,1.023-.375.815-1.184-.388-1.507-.669-3.042-.992-4.567a1.846,1.846,0,0,1,1.559-2.451q2.412-.537,4.843-.994c.6-.114.79-.353.644-.973-.387-1.633-.721-3.278-1.069-4.919a1.693,1.693,0,0,1,1.315-2.178c1.629-.4,3.271-.755,4.922-1.046.823-.145,1.032-.459.821-1.266-.358-1.361-.567-2.76-.929-4.12a3.308,3.308,0,0,1,.541-2.878c2.249-3.364,4.424-6.777,6.693-10.126a2.152,2.152,0,0,0,.11-2.617,26,26,0,0,1-3.681-14.262c.384-9.591,4.384-17.237,12.64-22.415a1.343,1.343,0,0,0,.7-1.857c-3.016-10.134-1.518-19.618,4.587-28.216a31.654,31.654,0,0,1,22.351-13.517c11.06-1.484,20.621,1.836,28.5,9.734A31.342,31.342,0,0,1,611.314,4859.376Zm-24.2,11.3a17.069,17.069,0,0,0-3.313.306,25.856,25.856,0,0,0-16.08,9.586c-4.359,5.378-6.359,11.523-5.261,18.443,1.351,8.521,5.993,14.735,13.634,18.711a4.449,4.449,0,0,1,2.676,4.3c-.04,3.9,0,7.792-.025,11.688a2.35,2.35,0,0,0,.766,1.9c1.352,1.273,2.646,2.608,3.962,3.92a1.83,1.83,0,0,1-.015,2.948c-1.142,1.146-2.276,2.3-3.449,3.416-.457.433-.46.723,0,1.157,1.176,1.112,2.313,2.263,3.459,3.407a1.838,1.838,0,0,1,0,2.956c-1.113,1.134-2.224,2.271-3.388,3.35-.512.474-.58.766-.034,1.265,1.151,1.049,2.253,2.152,3.353,3.255a1.941,1.941,0,0,1-.033,3.174c-.832.819-1.678,1.624-2.522,2.43-2.109,2.01-2.1,2.009-2.1,4.943a2.525,2.525,0,0,0,.705,1.862c2.257,2.4,4.482,4.831,6.722,7.249.857.925,1.57.954,2.432.035,2.171-2.317,4.292-4.682,6.495-6.968a3.163,3.163,0,0,0,.9-2.413c-.019-16.334,0-32.668-.028-49a5.082,5.082,0,0,1,3.034-5.026,24.566,24.566,0,0,0,6.933-38.856c-.327-.348-.52-.39-.822.025a32.5,32.5,0,0,1-6.949,6.98.975.975,0,0,0-.425,1.154,8.542,8.542,0,0,1,.144,3.656,10.6,10.6,0,0,1-15.344,7.757,10.437,10.437,0,0,1-2.039-17.213,10.562,10.562,0,0,1,15.27,1.563c.471.57.77.559,1.3.136a32.416,32.416,0,0,0,5.564-5.717c.49-.643.49-1-.2-1.5A25.794,25.794,0,0,0,587.11,4870.674Zm-25.943,48.169a26.678,26.678,0,0,0,7.834-1.168c.241-.074.609-.066.656-.379.045-.3-.289-.426-.488-.594a24.47,24.47,0,0,1-4.011-4.109c-6.691-9.087-8.1-18.757-2.966-29.031a29.649,29.649,0,0,1,10.013-11.1c.785-.543.776-.567-.1-.965-.191-.086-.384-.168-.58-.244a26.39,26.39,0,0,0-16.073-.912,24.036,24.036,0,0,0-13.764,8.446,24.485,24.485,0,0,0-1.785,27.835,4.333,4.333,0,0,1-.1,4.9c-2.225,3.379-4.437,6.767-6.673,10.139a1.879,1.879,0,0,0-.315,1.6c.43,1.807.812,3.625,1.191,5.443a1.9,1.9,0,0,1-1.64,2.57c-1.461.33-2.929.627-4.4.934-1.095.229-1.151.3-.924,1.365.3,1.406.631,2.806.908,4.217.317,1.615-.2,2.363-1.8,2.7-1.466.307-2.929.632-4.4.9-.684.126-.985.345-.782,1.126.368,1.42.627,2.868.935,4.3.367,1.711-.129,2.484-1.816,2.834-1.79.372-3.575.762-5.368,1.115a1.828,1.828,0,0,0-1.351.909c-.4.7-.881,1.357-1.326,2.033a1.891,1.891,0,0,0-.3,1.446c.577,3.274,1.121,6.554,1.681,9.831.223,1.3.728,1.651,1.983,1.333,3.253-.824,6.5-1.673,9.754-2.489a2.252,2.252,0,0,0,1.421-1q5.375-8.194,10.767-16.377,8.5-12.916,17.007-25.831a4.229,4.229,0,0,1,3.716-1.984C559.214,4918.635,560.336,4918.933,561.167,4918.843Zm16.986-88.663c-1.038.042-2.233.03-3.429.185a29.212,29.212,0,0,0-20.248,11.457c-6,7.846-7.6,16.632-4.961,26.168.149.537.19,1.153,1.1.784a30.5,30.5,0,0,1,9.143-2.169,27.735,27.735,0,0,1,15.564,3.041,2.028,2.028,0,0,0,1.933.116,25.839,25.839,0,0,1,11.207-2.057,28.463,28.463,0,0,1,15.371,5.159c.981.683,1.01.688,1.514-.366a28.371,28.371,0,0,0,2.567-17.665A29.856,29.856,0,0,0,578.153,4830.18Zm9.23,66.2a7.475,7.475,0,0,0,7.617-7.352,7.589,7.589,0,0,0-15.177.044A7.482,7.482,0,0,0,587.383,4896.383Z" fill="#c1c1c1"/>
  </g>
</svg>
