<svg xmlns="http://www.w3.org/2000/svg" width="120.865" height="116.311" viewBox="0 0 120.865 116.311">
  <g id="Сгруппировать_126" data-name="Сгруппировать 126" transform="translate(-1472.135 -4886)" opacity="0.13">
    <path id="Контур_300" data-name="Контур 300" d="M1579.43,5002.288a3.71,3.71,0,0,1-1.527-3.379q.042-52.454.022-104.906c0-2.176,1.005-3.2,3.179-3.214,2.93-.016,5.86.009,8.789-.021a3.791,3.791,0,0,1,3.083,1.23q0,54.618.024,109.236c0,.919-.237,1.087-1.106,1.076C1587.74,5002.26,1583.585,5002.288,1579.43,5002.288Zm8.543-55.738q0-24.125-.006-48.248c0-2.422.228-2.2-2.151-2.181-2.892.027-2.538-.419-2.539,2.5q-.018,47.893,0,95.786c0,3.016-.313,2.611,2.679,2.635,2.02.017,2.022,0,2.022-2Q1587.975,4970.792,1587.973,4946.55Z" fill="#c1c1c1"/>
    <path id="Контур_301" data-name="Контур 301" d="M1554.239,5002.288a3.341,3.341,0,0,1-1.741-3.243q.037-29.632.025-59.265c0-2.409.98-3.428,3.35-3.446,2.969-.021,5.938-.026,8.907,0,2.224.021,3.293,1.107,3.292,3.295q0,29.633,0,59.265a3.5,3.5,0,0,1-1.715,3.391Zm3.635-32.972h.006q0,12.269,0,24.537c0,3.2-.009,3.2,3.164,3.191,1.67,0,1.671,0,1.671-1.717q0-25.129,0-50.26c0-3.434.007-3.387-3.4-3.441-1.17-.018-1.464.376-1.459,1.493C1557.891,4951.851,1557.874,4960.584,1557.874,4969.316Z" fill="#c1c1c1"/>
    <path id="Контур_302" data-name="Контур 302" d="M1528.811,5002.288a3.505,3.505,0,0,1-1.68-3.3q.021-16.95.013-33.9c0-2.456,1.008-3.411,3.5-3.415,2.969,0,5.938-.012,8.907,0,2.1.011,3.124,1.038,3.125,3.149q.009,17.187.01,34.374a3.1,3.1,0,0,1-1.751,3.093Zm8.492-20.154h.007q0-5.925,0-11.85c0-3.3.008-3.3-3.326-3.273-1.451.014-1.517.064-1.508,1.576.017,2.6.088,5.205.085,7.808q-.012,9.876-.078,19.751c-.005.692.3.909.928.9a23.055,23.055,0,0,1,2.492.007c1.091.1,1.436-.3,1.422-1.406C1537.271,4991.141,1537.3,4986.638,1537.3,4982.134Z" fill="#c1c1c1"/>
    <path id="Контур_303" data-name="Контур 303" d="M1503.383,5002.288a3.649,3.649,0,0,1-1.53-3.365c.057-6.274.022-12.548.026-18.822,0-2.305.933-3.245,3.222-3.251,3.044-.008,6.088-.017,9.132,0,2.072.015,3.041,1.014,3.04,3.073,0,6.38-.033,12.761.012,19.141a3.361,3.361,0,0,1-1.544,3.221Zm3.838-12.751c0,1.42-.021,2.841,0,4.26.065,3.816-.612,3.157,3.366,3.261,1.064.027,1.36-.405,1.349-1.4-.04-3.392-.015-6.785-.014-10.178,0-3.336,0-3.291-3.321-3.312-1.128-.007-1.431.407-1.4,1.453C1507.264,4985.59,1507.222,4987.564,1507.221,4989.537Z" fill="#c1c1c1"/>
    <path id="Контур_304" data-name="Контур 304" d="M1478.193,5002.288a3.307,3.307,0,0,1-1.745-3.235c.044-4.617.015-9.234.018-13.852,0-2.256,1.068-3.326,3.351-3.336q4.389-.021,8.778,0c2.329.008,3.43,1.123,3.425,3.414-.008,4.577-.027,9.155,0,13.733a3.454,3.454,0,0,1-1.708,3.278Zm3.64-10.094c0,.434,0,.868,0,1.3.008,3.825.007,3.81,3.87,3.556.706-.047.977-.305.971-1.007q-.033-3.968,0-7.935c0-.651-.242-.939-.907-.922-.988.025-1.979.034-2.966,0-.72-.025-.991.272-.975.979C1481.852,4989.509,1481.831,4990.852,1481.833,4992.194Z" fill="#c1c1c1"/>
    <path id="Контур_305" data-name="Контур 305" d="M1546.951,4895.42c-2,1.937-3.844,3.714-5.68,5.5-.8.773-1.557,1.579-2.367,2.333a2.628,2.628,0,0,1-3.831.039,2.577,2.577,0,0,1,.042-3.732q6.356-6.4,12.793-12.724a2.55,2.55,0,0,1,3.822.057q6.261,6.157,12.486,12.351a2.826,2.826,0,0,1,.909,3,2.579,2.579,0,0,1-2.033,1.8,2.764,2.764,0,0,1-2.649-.993c-2.11-2.086-4.224-4.169-6.315-6.274-.47-.474-.854-1.033-1.364-1.657a2.217,2.217,0,0,0-.336,1.616,88.972,88.972,0,0,1-1.2,18.178,56.58,56.58,0,0,1-16.216,30.767,68.583,68.583,0,0,1-22.423,14.216,95.34,95.34,0,0,1-25.711,6.427c-1.219.131-2.439.256-3.661.341a2.8,2.8,0,0,1-3.1-2.462,2.615,2.615,0,0,1,2.472-2.8,104.651,104.651,0,0,0,13.147-1.875c11.068-2.438,21.44-6.477,30.5-13.432,11.026-8.462,17.511-19.64,19.894-33.279a92.575,92.575,0,0,0,.932-16.657A6.7,6.7,0,0,0,1546.951,4895.42Z" fill="#c1c1c1"/>
    <path id="Контур_306" data-name="Контур 306" d="M1497.166,4891.115c13.11-.106,24.847,11.425,25.107,24.347.272,13.46-11.027,25.547-24.968,25.683-13.194.128-24.889-11.392-25.165-24.413C1471.862,4903.532,1483.04,4891.2,1497.166,4891.115Zm.059,5.395a19.231,19.231,0,0,0-19.72,19.128c-.2,11.2,7.913,19.878,18.97,20.125,11.567.259,20.162-8,20.445-18.9C1517.225,4905.094,1508.217,4896.271,1497.225,4896.51Z" fill="#c1c1c1"/>
    <path id="Контур_307" data-name="Контур 307" d="M1501.4,4921.931a2.4,2.4,0,0,0-1.335-2.214,15.1,15.1,0,0,0-3.4-1.368,19.1,19.1,0,0,1-5.706-2.577c-4.444-3.157-4.763-8.464-.72-12.153a7.845,7.845,0,0,1,2.536-1.729,2.283,2.283,0,0,0,1.734-2.2,2.6,2.6,0,0,1,4.359-1.487,2.262,2.262,0,0,1,.838,1.65c.014,1.09.6,1.571,1.564,1.914a8.68,8.68,0,0,1,3.67,2.737c1.184,1.4,1.163,3.025,0,4.024a2.692,2.692,0,0,1-4.039-.613c-1.484-2.049-4.377-2.111-6.244-1.321a2.943,2.943,0,0,0-1.89,2.771,2.6,2.6,0,0,0,1.7,2.475,22.689,22.689,0,0,0,3.881,1.462,16.665,16.665,0,0,1,5.191,2.552c3.929,3.041,4.29,7.715.9,11.357a9.94,9.94,0,0,1-3.562,2.507,1.591,1.591,0,0,0-1.146,1.446c-.213,1.79-1.224,2.758-2.683,2.735a2.66,2.66,0,0,1-2.633-2.677,1.447,1.447,0,0,0-1.18-1.375,18.237,18.237,0,0,1-5.144-2.66c-1.691-1.255-2.087-2.784-1.083-4.148.976-1.326,2.65-1.374,4.282-.122a9.333,9.333,0,0,0,6.928,2.224A3.274,3.274,0,0,0,1501.4,4921.931Z" fill="#c1c1c1"/>
  </g>
</svg>
