<svg xmlns="http://www.w3.org/2000/svg" width="111.353" height="165.747" viewBox="0 0 111.353 165.747">
  <g id="Сгруппировать_124" data-name="Сгруппировать 124" transform="translate(-495.918 -5096.725)" opacity="0.13">
    <path id="Контур_296" data-name="Контур 296" d="M526.711,5229.407c-2.778-3.048-2.878-6.278-1.934-9.843,1.482-5.589,2.839-11.22,3.979-16.888a52.515,52.515,0,0,0,.576-8.022q.509-11.662.936-23.33c.082-2.3,0-2.309-2-1.294-5.4,2.748-11.22-.71-11.2-6.776.024-6.957.186-13.915.385-20.87a7.384,7.384,0,0,1,2.969-5.865c5.358-4.217,10.628-8.546,15.893-12.88a19.488,19.488,0,0,1,6.06-3.482c1.425-.489,1.8-.793.584-2.086-6.578-7.023-3.34-18.793,5.928-20.919,6.667-1.529,12.391,1.068,15.046,7.5a12.507,12.507,0,0,1-5.709,15.957c-2.346,1.273-2.292,1.221-.373,3.229,2.872,3,4.728,6.765,7.27,10.023a27.723,27.723,0,0,1,2.956,4.231c1.62,3.157,4.382,4.1,7.6,4.5,1.32.165,1.8-.276,1.777-1.514-.013-.827,0-1.654.007-2.481.082-9.784.187-19.568.226-29.352.007-1.8,1.086-2.01,2.437-2.011q7.239,0,14.477.008c3.033,0,6.067-.027,9.1.024,2.64.044,3.25,1.181,1.859,3.371-1.366,2.152-2.722,4.312-4.157,6.418a2.407,2.407,0,0,0-.007,3.03c1.225,1.831,2.372,3.715,3.535,5.588.608.981,1.563,1.976.882,3.2-.7,1.268-2.094.8-3.209.809-6.411.03-12.823.062-19.233-.04-1.964-.031-2.709.581-2.616,2.592.136,2.958.074,5.928.008,8.891a2.7,2.7,0,0,0,1.742,2.886,7.342,7.342,0,0,1,3.887,8.5c-.919,3.491-3.893,6.013-7.451,5.6-5.455-.639-10.954-1.233-16.2-3.016-.837-.284-1.313-.384-1.393.665q-.481,6.282-.973,12.563c-.083,1.047.708,1.23,1.417,1.472,2.478.845,4.973,1.64,7.442,2.509,3.459,1.216,5.08,3.786,5.358,7.357.241,3.081.557,6.156.871,9.583,2.426-1.8,5-1.3,7.48-1.314,6.411-.038,12.822-.019,19.233-.006,3.557.008,5.048,1.48,5.09,4.976.008.689.012,1.379,0,2.068-.063,3.147-1.441,4.573-4.554,4.6-4.343.034-8.688.078-13.028-.024-1.953-.046-2.7.6-2.642,2.61.117,4.271.043,8.547.034,12.821-.008,3.8-1.1,4.875-4.967,4.876q-9.617,0-19.233,0c-2.694,0-2.732.04-2.737,2.808-.008,4.274,0,8.548,0,12.822,0,4.965-.886,5.829-5.951,5.83-6.136,0-12.272.065-18.406-.037-2.018-.033-2.628.7-2.583,2.647.107,4.616.053,9.236.028,13.855-.018,3.513-1.232,4.708-4.746,4.71q-13.956.006-27.913-.016c-3.3-.007-4.514-1.176-4.621-4.425-.05-1.514,0-3.031-.022-4.546-.026-1.9.88-2.717,2.795-2.7,6.548.044,13.1.021,19.646.011,2.706,0,2.733-.038,2.738-2.807q.013-6.2,0-12.409C521.1,5230.364,521.354,5230.065,526.711,5229.407Zm-6.295-75.776c0,3.638-.079,6.809.026,9.975a4.147,4.147,0,0,0,8.247.516,19.189,19.189,0,0,0,.286-3.283c.049-4.615.049-9.231.074-13.847.006-1.108-.021-2.265.934-3.053,2.55-2.1,5.131-4.167,7.7-6.247a1.531,1.531,0,0,1,2.37.118c.731.866.366,1.709-.351,2.371a18.859,18.859,0,0,1-2.563,2.081c-2.249,1.435-3.065,3.417-3.142,6.077-.145,5.017-.448,10.044-1,15.032a12.541,12.541,0,0,0,10.576,13.779,13.018,13.018,0,0,1,2.207.492c4.918,1.566,9.816,3.192,14.746,4.716a2.646,2.646,0,0,1,2.078,2.669q.729,9.051,1.594,18.092c.269,2.877,2.507,5.037,4.861,4.809,2.6-.251,4.421-2.673,4.165-5.7-.634-7.472-1.338-14.938-1.976-22.409a5.034,5.034,0,0,0-3.86-4.784c-3.026-.938-6.026-1.96-9.051-2.9-1.621-.5-2.242-1.445-1.675-3.119a23.738,23.738,0,0,0,.932-6.308c.446-7.487,1.033-14.965,1.487-22.451.175-2.876.7-5.845-.193-8.628-2.794-8.723-12.157-11.766-19.424-6.235-5.8,4.418-11.37,9.148-17.036,13.745a4.8,4.8,0,0,0-1.692,3.4C520.28,5146.388,520.544,5150.248,520.416,5153.631Zm-5.923,105.788c4.274,0,8.549-.078,12.819.033,2.024.053,2.636-.751,2.607-2.677-.082-5.375-.033-10.752-.02-16.128.006-2.567.122-2.678,2.7-2.681,7.1-.008,14.2,0,21.3-.008,2.725,0,2.9-.188,2.91-2.971.014-3.377-.005-6.754.009-10.131a38.334,38.334,0,0,0-.009-6.376c-.274-1.636.141-1.964,1.544-1.891,7.507.389,15.019.133,22.529.2,2.918.024,3.11-.2,3.116-3.228.008-4.825,0-9.649,0-14.474,0-2.8.044-2.843,2.935-2.846,4.825,0,9.65-.05,14.474.019,1.822.027,2.6-.555,2.569-2.5-.03-1.886-.738-2.557-2.585-2.542-6.892.056-13.785.072-20.676-.015-1.956-.025-2.492.758-2.463,2.579.08,4.961.035,9.924.021,14.886-.007,2.651-.19,2.841-2.8,2.847-7.167.018-14.335.01-21.5.025-2.8.006-2.862.075-2.871,2.945-.015,5.307-.069,10.615.012,15.921.027,1.725-.34,2.382-2.279,2.346-7.372-.138-14.749-.031-22.123-.084-1.833-.012-2.58.627-2.547,2.544.093,5.444-.031,10.891.065,16.334.035,1.962-.617,2.665-2.61,2.637-6.546-.093-13.1.008-19.642-.062-1.822-.02-2.864.316-2.738,2.473.151,2.587.236,2.812,2.855,2.82C506.223,5259.425,510.358,5259.416,514.493,5259.419Zm22.6-29.869c3.314,0,6.129-.071,8.938.028,1.61.057,2.016-.672,2-2.1-.05-4.82-.006-9.64-.061-14.459-.04-3.518,1.41-4.984,5-4.926,1.927.032,3.858.115,5.781.029,2.962-.132,2.938-.18,2.339-3.012a21.381,21.381,0,0,1-.245-2.46c-.449-4.932-.871-9.867-1.369-14.794-.106-1.049-.114-2.262-1.475-2.7q-5.3-1.718-10.588-3.475c-1.269-.424-1.708.055-1.867,1.317-.294,2.334-.248,4.671-.336,7.008-.162,4.305-.3,8.617-.664,12.907-.511,5.926-2.6,11.532-3.79,17.323C540.111,5223.385,539.57,5226.6,537.1,5229.55Zm-3.712-54.308c-.338,6.891-.853,13.268-.9,19.648a66.86,66.86,0,0,1-2.41,16.507c-.907,3.464-1.724,6.953-2.492,10.451a4.844,4.844,0,0,0,2.479,5.6,4.731,4.731,0,0,0,5.569-1.445,6.04,6.04,0,0,0,1.129-2.85c1.982-9.062,4.946-17.939,4.978-27.366.017-4.679.268-9.357.388-14.035.019-.756-.015-1.488-1.025-1.757A17.2,17.2,0,0,1,533.384,5175.242Zm57.859-48.683v.078q3.924,0,7.848,0c2.319,0,2.418-.144,1.264-2.061-.851-1.414-1.754-2.8-2.668-4.173a2.877,2.877,0,0,1-.041-3.616c1.035-1.456,1.946-3,2.913-4.505.777-1.209.451-1.717-.986-1.712q-8.364.029-16.728-.022c-1.345-.008-2.036.435-2.021,1.905q.065,6.092-.022,12.185c-.021,1.442.594,1.958,1.975,1.935C585.6,5126.527,588.421,5126.559,591.243,5126.559Zm-39.268-7.722a9.392,9.392,0,0,0,9.713-9.4,9.48,9.48,0,1,0-18.96-.022A9.456,9.456,0,0,0,551.975,5118.837Zm10.863,17.47a117.81,117.81,0,0,0-1.023,12.295,5.125,5.125,0,0,0,4.275,4.14q5.689.949,11.382,1.89c2.924.482,5.267-.768,5.705-3.037.505-2.615-.931-4.593-3.995-5.236a66.413,66.413,0,0,0-7.924-1.317,4.953,4.953,0,0,1-4.013-2.433C565.876,5140.556,564.42,5138.56,562.838,5136.307Z" fill="#c1c1c1"/>
  </g>
</svg>
