<svg xmlns="http://www.w3.org/2000/svg" width="129.488" height="129.528" viewBox="0 0 129.488 129.528">
  <g id="Сгруппировать_125" data-name="Сгруппировать 125" transform="translate(-1460 -5132.896)" opacity="0.13">
    <path id="Контур_297" data-name="Контур 297" d="M1524.133,5262.424c-1.481-.794-1.528-2.19-1.528-3.613q0-13.293,0-26.587c0-2.186-.024-2.106-2.1-2.221-1.547-.085-1.96.522-1.882,1.964.1,1.9.041,3.812.017,5.718-.019,1.56-.737,2.44-1.954,2.473a2.2,2.2,0,0,1-2.113-2.394c-.076-2.058-.106-4.124-.017-6.181.069-1.582-.86-1.585-1.979-1.56-1.059.023-2.04-.136-2.011,1.512.082,4.533.057,9.068.006,13.6a2.289,2.289,0,0,0,1.243,2.083,6.062,6.062,0,1,1-8.236,8.567,5.8,5.8,0,0,1,1.32-8.231,3.457,3.457,0,0,0,1.6-3.331c-.072-4.172-.062-8.347-.005-12.52.017-1.271-.408-1.744-1.691-1.7a16.886,16.886,0,0,1-4.313-.155,10.315,10.315,0,0,1-8.208-10.252c-.109-3.781-.11-3.721-3.912-3.8a6.7,6.7,0,0,0-5.355,2.183c-3.34,3.5-6.805,6.893-10.262,10.285a2.387,2.387,0,0,0-.807,2.566,5.845,5.845,0,0,1-3.087,6.614,6.252,6.252,0,0,1-7.151-1.106,6.344,6.344,0,0,1-1.021-7.178,5.918,5.918,0,0,1,6.675-2.979,2.255,2.255,0,0,0,2.426-.776c3.4-3.45,6.905-6.8,10.241-10.308a10.328,10.328,0,0,1,8.285-3.387c.669.024,1.346-.053,2.009.014,1.449.147,2.052-.392,1.98-1.912-.094-2-.052-2.044-2.1-2.05-1.855,0-3.71,0-5.565-.009-1.3-.007-2.209-.53-2.307-1.944-.087-1.261.756-2.089,2.287-2.138,2.007-.064,4.022-.107,6.026,0,1.676.086,1.625-.914,1.65-2.077.025-1.2-.148-1.92-1.648-1.911-9.068.053-18.137.028-27.206.02a8.052,8.052,0,0,1-1.841-.129,1.835,1.835,0,0,1-1.533-2.019,1.816,1.816,0,0,1,1.553-1.849,8.439,8.439,0,0,1,1.842-.124q13.371-.01,26.742-.006a2.216,2.216,0,0,0,1.937-3.434c-.318-.571-.862-.49-1.361-.5-1.751-.017-3.5,0-5.255-.012a7.793,7.793,0,0,1-1.386-.069,1.907,1.907,0,0,1-1.805-2.114,1.867,1.867,0,0,1,2.016-1.9c2.163-.051,4.33-.081,6.491-.011,1.387.044,1.5-.754,1.433-1.781-.064-.964.346-2.2-1.353-2.188q-7.032.029-14.066-.005c-.869,0-1.238.517-1.67,1.134-2.2,3.144-6.125,3.79-8.9,1.492a6,6,0,0,1-2.075-6.254,5.849,5.849,0,0,1,4.672-4.424c2.55-.377,4.786.283,6.184,2.541a2.752,2.752,0,0,0,2.758,1.433q6.337-.1,12.675,0c1.331.021,1.878-.38,1.8-1.757a14.5,14.5,0,0,1,.243-4.306c.36-1.482,1.251-2.237,2.437-2.034s1.8,1.255,1.618,2.727a17.657,17.657,0,0,0-.2,2.148q-.016,21.408-.012,42.817a7.311,7.311,0,0,0,1.05,4.131,5.833,5.833,0,0,0,5.244,2.7q22.1-.015,44.209-.01c.617,0,1.234-.063,1.851-.108a2,2,0,0,1,.7,3.939,12.3,12.3,0,0,1-4.451.266c-1.429-.065-1.865.365-2.016,1.874a9.829,9.829,0,0,0,3.748,9.2c3.134,2.656,5.887,5.763,8.787,8.692a2.191,2.191,0,0,0,2.191.723,6.038,6.038,0,0,1,7.38,4.44c.825,3.134-.96,6.129-4.349,7.3-.145.05-.281.126-.421.19h-2.165c-4.137-1.453-5.39-3.481-4.765-7.853a2.047,2.047,0,0,0-.8-1.874c-2.7-2.691-5.224-5.581-8.121-8.034-4.124-3.489-6.389-7.566-5.549-13.073.24-1.567-.79-1.574-1.919-1.574-1.183,0-2.134,0-2.044,1.66.111,2.052.068,4.118-.02,6.174-.061,1.451-1.052,2.438-2.185,2.292a2.056,2.056,0,0,1-1.884-2.382c.019-2.111.009-4.221-.005-6.332,0-.448.125-1.061-.4-1.228a5.528,5.528,0,0,0-3.194-.037c-.9.262-.524,1.238-.525,1.9q-.035,13.745,0,27.488c0,1.216-.181,2.253-1.356,2.87Zm-15.432-12.017c-1.224.049-2.028.594-2.077,1.818a1.825,1.825,0,0,0,1.829,2.033,1.93,1.93,0,0,0,.248-3.851Zm52.46,6.006c-.138-1.223-.756-1.94-1.971-1.951a1.706,1.706,0,0,0-1.907,1.891,1.753,1.753,0,0,0,1.887,1.942A1.963,1.963,0,0,0,1561.161,5256.413Zm-95.192-22.463a1.869,1.869,0,0,0,2.045-1.9,2.013,2.013,0,0,0-1.993-1.959,1.766,1.766,0,0,0-1.85,1.863A1.719,1.719,0,0,0,1465.969,5233.95Zm2.241-52.725a1.959,1.959,0,0,0,1.879,2.217,2.07,2.07,0,0,0,1.968-1.992,1.756,1.756,0,0,0-1.842-1.859A1.73,1.73,0,0,0,1468.21,5181.225Z" fill="#c1c1c1"/>
    <path id="Контур_298" data-name="Контур 298" d="M1522.4,5169.384c-6.23.113-14.01-.174-21.787.123a1.989,1.989,0,0,1-.691-3.9,11.662,11.662,0,0,1,4.6-.315c1.43.064,1.863-.367,2.015-1.875a9.811,9.811,0,0,0-3.748-9.194c-3.06-2.584-5.751-5.607-8.562-8.48a2.617,2.617,0,0,0-2.719-.879,5.982,5.982,0,0,1-6.526-3.056,6.084,6.084,0,0,1,1.123-7.254,6.234,6.234,0,0,1,7.039-1,5.886,5.886,0,0,1,3.125,6.477,2.746,2.746,0,0,0,.911,2.852c3.456,3.392,6.824,6.874,10.3,10.246a9.274,9.274,0,0,1,3.125,7.579c-.047.718-.008,1.442-.007,2.163,0,2.366.725,2.9,3.1,2.376.761-.166.826-.67.829-1.258.01-1.855,0-3.709.018-5.564a6.442,6.442,0,0,1,.173-1.68,1.977,1.977,0,0,1,3.914.438c.024,2.164.1,4.332-.009,6.49-.076,1.547.75,1.634,1.916,1.608,1.146-.025,2.108.068,2.1-1.623-.059-8.913-.029-17.826-.02-26.74a15.64,15.64,0,0,1,.137-2.153,1.888,1.888,0,0,1,1.958-1.812,1.919,1.919,0,0,1,2.062,1.875,16.132,16.132,0,0,1,.123,2.155q.012,13.139.008,26.276a2.288,2.288,0,0,0,3.51,1.886c.51-.291.436-.777.439-1.226.013-2.061-.005-4.122.013-6.183.015-1.664.736-2.585,1.987-2.6,1.184-.013,2.053.988,2.1,2.58.057,2.008.093,4.022.005,6.027-.077,1.769,1.092,1.48,2.162,1.529,1.118.051,1.849-.09,1.825-1.542-.075-4.533-.057-9.068-.005-13.6a2.291,2.291,0,0,0-1.268-2.069,6.062,6.062,0,1,1,8.275-8.531,5.8,5.8,0,0,1-1.355,8.224,3.44,3.44,0,0,0-1.573,3.343c.066,4.12.077,8.244,0,12.364-.029,1.448.481,1.9,1.878,1.828a15.222,15.222,0,0,1,4.157.157,10.317,10.317,0,0,1,8.185,10.271c.1,3.758.1,3.7,3.934,3.772a6.71,6.71,0,0,0,5.348-2.2c3.377-3.54,6.881-6.961,10.369-10.4a2.184,2.184,0,0,0,.7-2.307,5.963,5.963,0,0,1,4.693-7.313,6.024,6.024,0,0,1,7.138,4.812,6.108,6.108,0,0,1-5.468,7.224,1.914,1.914,0,0,1-.916-.013c-1.881-.827-3,.2-4.213,1.465-3.067,3.2-6.309,6.226-9.356,9.441a10.225,10.225,0,0,1-8.136,3.371c-.67-.021-1.34-.006-2.01,0-2.025.012-2.005.084-2.11,2.076-.081,1.532.52,1.978,1.97,1.9,1.849-.1,3.709-.044,5.563-.015,1.6.025,2.408.7,2.447,1.964.04,1.3-.823,2.088-2.471,2.127-1.957.046-3.92.1-5.872,0-1.693-.087-1.59.953-1.629,2.1-.041,1.222.193,1.9,1.669,1.891,9.016-.053,18.033-.027,27.049-.023a10.432,10.432,0,0,1,1.7.065,1.889,1.889,0,0,1,1.811,1.95,1.91,1.91,0,0,1-1.87,2.055,11.272,11.272,0,0,1-1.7.056q-13.293,0-26.586.017c-.668,0-1.607-.35-1.91.541a4.558,4.558,0,0,0,.022,2.887c.2.6.849.483,1.347.488,1.7.016,3.4.006,5.1.01a11.959,11.959,0,0,1,1.235.03c1.412.152,2.2.951,2.1,2.171a1.942,1.942,0,0,1-2.188,1.9c-2.113.026-4.227.068-6.337,0-1.4-.047-1.475.783-1.417,1.794.055.973-.324,2.184,1.368,2.175q7.032-.034,14.065,0c.874,0,1.233-.534,1.663-1.147,2.2-3.137,6.132-3.776,8.9-1.47a5.9,5.9,0,0,1,2.048,6.255,5.529,5.529,0,0,1-4.521,4.371,5.626,5.626,0,0,1-6.325-2.509,2.749,2.749,0,0,0-2.766-1.42c-4.224.06-8.45.067-12.673,0-1.348-.022-1.863.41-1.782,1.77a14.349,14.349,0,0,1-.28,4.457c-.322,1.248-1.026,2.04-2.412,1.858a2.027,2.027,0,0,1-1.606-2.569,21,21,0,0,0,.2-3.695q.006-20.711,0-41.423c0-3.43-1.532-5.718-4.307-6.583a8.049,8.049,0,0,0-2.45-.234C1538.886,5169.382,1531.415,5169.384,1522.4,5169.384Zm-31.94-28.521a1.764,1.764,0,0,0,1.76-2.02,1.74,1.74,0,0,0-1.986-1.833,1.822,1.822,0,0,0-1.841,2.021C1488.433,5140.246,1489.231,5140.809,1490.456,5140.863Zm52.474,1.965a1.982,1.982,0,0,0-2.01-1.794,1.767,1.767,0,0,0-1.872,1.964,1.7,1.7,0,0,0,1.927,1.87C1542.186,5144.846,1542.811,5144.137,1542.93,5142.828Zm42.407,20.441a1.74,1.74,0,0,0-1.916-1.914,1.835,1.835,0,0,0-1.93,1.811,2.068,2.068,0,0,0,1.91,2.054A1.88,1.88,0,0,0,1585.337,5163.269Zm-4.043,50.809a1.958,1.958,0,0,0-1.875-2.22,2.067,2.067,0,0,0-1.974,1.991,1.761,1.761,0,0,0,1.848,1.862C1580.524,5215.749,1581.231,5215.16,1581.294,5214.078Z" fill="#c1c1c1"/>
    <path id="Контур_299" data-name="Контур 299" d="M1531.412,5219.855a7.928,7.928,0,0,1-5.8-2.1c-.724-.656-1.153-.491-1.8.075-4.631,4.033-13.59,2.088-14.676-4.986a2.7,2.7,0,0,0-1.021-1.662c-3.825-3.325-4.68-7.865-2.278-12.241a1.655,1.655,0,0,0,.008-1.831c-2.721-5.022-1.026-10.17,4.15-12.647.778-.372,1.439-.659,1.4-1.738a6.575,6.575,0,0,1,4.1-6.52,7.724,7.724,0,0,1,8.081.567,1.689,1.689,0,0,0,2.366-.013,7.742,7.742,0,0,1,8.083-.545,6.619,6.619,0,0,1,4.089,6.533,1.512,1.512,0,0,0,1.128,1.6c5.78,2.451,7.519,9.2,3.765,13.656-.508.6-.206,1,.124,1.488,2.981,4.421,2.329,8.861-1.8,12.293a2.863,2.863,0,0,0-1.053,1.463C1539.059,5217.587,1536.038,5219.861,1531.412,5219.855Zm-4.7-13.783a47.875,47.875,0,0,0,.164,6.083,4.171,4.171,0,0,0,4.346,3.584c2.609.1,4.46-1.074,5.029-3.188q.717-2.661-2.91-4.478c-1.273-.637-1.819-1.7-1.315-2.72a2.054,2.054,0,0,1,2.854-1.056,8.363,8.363,0,0,1,3.947,2.864c.564.767.926.578,1.371-.1,1.286-1.946.647-4.573-1.544-6.231s-2.188-2.781.044-4.36a4.566,4.566,0,0,0-.243-7.944,7.135,7.135,0,0,0-5.963-.531c-1.375.387-2.471-.067-2.764-1.178a2.051,2.051,0,0,1,1.461-2.667,12.283,12.283,0,0,1,1.183-.356c1.771-.475,2.169-1.753.957-3.132-1.146-1.3-2.659-1.285-4.148-.968a2.8,2.8,0,0,0-2.3,2.422c-.212,1.271-.711,2.364-2.2,2.33-1.39-.031-1.867-1.085-2.069-2.3a2.84,2.84,0,0,0-2.421-2.48c-1.5-.285-3.027-.279-4.1,1.091-.923,1.177-.659,2.354.017,3.593a2.038,2.038,0,0,1-1.586,3.212c-.4.072-.823.056-1.23.115a5.028,5.028,0,0,0-4.552,5.867c.213,1.15.632,1.839,1.961,1.091a7.747,7.747,0,0,1,2.039-.7,1.924,1.924,0,0,1,2.522,1.425,1.89,1.89,0,0,1-1.366,2.424,10.38,10.38,0,0,0-3.036,1.483,5.619,5.619,0,0,0-1.419,7.335c.439.639.776,1,1.514.206,1.149-1.23,2.333-1.355,3.217-.479,1.092,1.082.651,2.126-.152,3.156a3.542,3.542,0,0,0-.891,2.564c.231,2.251,2.353,3.772,5.1,3.678,2.565-.087,4.253-1.566,4.346-3.864.05-1.234-.023-2.474.026-3.708a4.022,4.022,0,0,0-2.6-4c-1.6-.786-2.108-1.634-1.673-2.818s1.419-1.569,3.082-1c.962.329,1.2.046,1.187-.856-.02-2.422,0-4.843,0-7.265a5.914,5.914,0,0,1,.332-2.28,1.826,1.826,0,0,1,1.972-1.177,1.859,1.859,0,0,1,1.708,1.34c.3.792-.4,2.041.514,2.351.668.226,1.632-.426,2.466-.679a4.012,4.012,0,0,1,.6-.134,6.739,6.739,0,0,1,.768-.071c1.471-.045,2.484.669,2.616,1.838.13,1.151-.734,2.028-2.229,2.262-3.438.537-4.6,1.877-4.641,5.363C1526.7,5202.584,1526.713,5204.13,1526.713,5206.072Z" fill="#c1c1c1"/>
  </g>
</svg>
