<svg xmlns="http://www.w3.org/2000/svg" xmlns:xlink="http://www.w3.org/1999/xlink" width="26.03" height="26.03" viewBox="0 0 26.03 26.03">
  <defs>
    <clipPath id="clip-path">
      <path id="Контур_347" data-name="Контур 347" d="M1566.98,6322.513h-9.99a8.02,8.02,0,0,0-8.02,8.021v9.99a8.02,8.02,0,0,0,8.02,8.019h9.99a8.019,8.019,0,0,0,8.02-8.019v-9.99A8.02,8.02,0,0,0,1566.98,6322.513Zm5.522,17.051a6.48,6.48,0,0,1-6.48,6.481h-8.073a6.479,6.479,0,0,1-6.481-6.481v-8.073a6.481,6.481,0,0,1,6.481-6.48h8.073a6.482,6.482,0,0,1,6.48,6.48Zm-10.168-10.846a6.856,6.856,0,1,0,6.856,6.855A6.855,6.855,0,0,0,1562.334,6328.718Zm0,10.98a4.125,4.125,0,1,1,4.125-4.125A4.125,4.125,0,0,1,1562.334,6339.7Zm6.381-12.832a1.744,1.744,0,1,0,1.744,1.744A1.744,1.744,0,0,0,1568.715,6326.866Z" fill="#c1c1c1"/>
    </clipPath>
  </defs>
  <g id="Сгруппировать_154" data-name="Сгруппировать 154" transform="translate(-1548.97 -6322.513)" clip-path="url(#clip-path)">
    <g id="Сгруппировать_153" data-name="Сгруппировать 153">
      <path id="Контур_344" data-name="Контур 344" d="M1537.208,6335.477a24.619,24.619,0,0,0,32.343,23.376,34.51,34.51,0,0,0,0-46.752,24.619,24.619,0,0,0-32.343,23.376Z" fill="#c1c1c1"/>
      <path id="Контур_345" data-name="Контур 345" d="M1561.675,6310.871a24.594,24.594,0,0,0-20.64,11.465,65.056,65.056,0,0,0,34.362,33.7,24.617,24.617,0,0,0-13.722-45.165Z" fill="#c1c1c1"/>
      <path id="Контур_346" data-name="Контур 346" d="M1561.827,6331.4a31.508,31.508,0,0,0-23.7,10.717,24.618,24.618,0,0,0,47.409,0A31.51,31.51,0,0,0,1561.827,6331.4Z" fill="#c1c1c1"/>
    </g>
  </g>
</svg>
