<svg xmlns="http://www.w3.org/2000/svg" width="248" height="34.662" viewBox="0 0 248 34.662"><g transform="translate(-68 -44.605)"><path d="M175.525,61.8c0,7.379-5.158,12.621-12.37,12.621-7.254,0-12.369-5.242-12.369-12.621V45.109h4.235v16.6c0,5.157,3.354,8.847,8.134,8.847,4.738,0,8.093-3.69,8.093-8.847v-16.6h4.277Z"/><path d="M262.955,49.05h-9.477V73.916h-4.235V49.05h-9.434V45.109h23.146Z"/><path d="M288.954,49.05h-16.9v8.219h15.263V61.21H272.055v8.764h16.9v3.941H267.778V45.109h21.176Z"/><path d="M316,49.05h-9.477V73.916h-4.235V49.05h-9.434V45.109H316Z"/><path d="M93.941,50.46H88.909L74.946,69.245l.462,3.4h14.3v6.625h4.235V72.642h4.151V68.91H93.941ZM89.706,68.91H79.6L89.706,55.282Z"/><path d="M86.568,45.756H68v3.569h.013v18.45h5.032L87.008,48.99Zm-14.32,17.2V49.325H82.354Z"/><path d="M130.49,44.6a14.907,14.907,0,1,0,0,29.814,14.769,14.769,0,0,0,9.225-3.313l3.228,2.81,2.433-2.852-3.062-2.641a14.659,14.659,0,0,0,3.062-8.932A15.053,15.053,0,0,0,130.49,44.6ZM139.17,65.7l-4.235-3.69L132.5,64.858l4.11,3.565a10.2,10.2,0,0,1-6.122,2.1,11.014,11.014,0,0,1,0-22.014c5.744,0,10.567,5.032,10.567,10.986A11.389,11.389,0,0,1,139.17,65.7Z"/><path d="M171.248,61.714c0,5.157-3.355,8.847-8.093,8.847-4.78,0-8.134-3.69-8.134-8.847v-16.6h-4.235V61.8c0,7.379,5.115,12.621,12.369,12.621,7.212,0,12.37-5.242,12.37-12.621V45.109h-4.277Z"/><path d="M192.3,45.109,179.929,73.916h4.7l2.516-5.871h15.011l2.516,5.871h4.7l-12.37-28.807Zm-3.522,19.12,5.871-13.669,5.87,13.669Z"/><path d="M236.411,54.5c0-5.493-4.612-9.392-10.692-9.392H213.6V73.916h4.235V63.894h6.626l7.044,10.022h4.864l-7.338-10.441C233.392,62.342,236.411,58.946,236.411,54.5Zm-11.279,5.451h-7.3V49.05h7.3c4.151,0,6.961,2.055,6.961,5.451S229.283,59.952,225.132,59.952Z"/><path d="M239.809,49.05h9.434V73.916h4.235V49.05h9.477V45.109H239.809Z"/><path d="M267.778,73.916h21.176V69.974h-16.9V61.21h15.263V57.269H272.055V49.05h16.9V45.109H267.778Z"/><path d="M292.854,49.05h9.434V73.916h4.235V49.05H316V45.109H292.854Z"/></g></svg>