<svg xmlns="http://www.w3.org/2000/svg" width="30.335" height="25.025" viewBox="0 0 30.335 25.025">
  <path id="Контур_348" data-name="Контур 348" d="M1399.276,6323.323a.649.649,0,0,0-.442-.481,2.269,2.269,0,0,0-1.194.085s-26.579,9.553-28.1,10.611c-.327.228-.437.36-.491.516-.263.753.555,1.085.555,1.085l6.851,2.232a.752.752,0,0,0,.346-.02c1.559-.985,15.68-9.9,16.495-10.2.128-.038.223.006.2.1-.326,1.144-12.591,12.046-12.591,12.046a.581.581,0,0,0-.076.126l-.016-.009-.64,6.795s-.267,2.081,1.814,0c1.469-1.469,2.89-2.7,3.6-3.3,2.356,1.626,4.891,3.426,5.985,4.366a1.9,1.9,0,0,0,1.388.536c1.038-.039,1.328-1.18,1.328-1.18s4.844-19.494,5.005-22.106c.016-.256.038-.419.04-.6A2.214,2.214,0,0,0,1399.276,6323.323Z" transform="translate(-1369 -6322.784)" fill="#c1c1c1"/>
</svg>
